<?xml version="1.0" encoding="utf-8"?>
<!-- Generator: Adobe Illustrator 15.1.0, SVG Export Plug-In . SVG Version: 6.00 Build 0)  -->
<!DOCTYPE svg PUBLIC "-//W3C//DTD SVG 1.1//EN" "http://www.w3.org/Graphics/SVG/1.1/DTD/svg11.dtd">
<svg version="1.1" id="レイヤー_1" xmlns="http://www.w3.org/2000/svg" xmlns:xlink="http://www.w3.org/1999/xlink" x="0px"
	 y="0px" width="140px" height="14.0009766px" viewBox="0 0 140 14.0009766" style="enable-background:new 0 0 140 14.0009766;"
	 xml:space="preserve">
<style type="text/css">
<![CDATA[
	.st0{fill:#FFFFFF;}
]]>
</style>
<g>
	<path class="st0" d="M8.4863281,1.7226563H1.6601563v4.015625H7.71875v1.4453125H1.6601563v6.5410156H0V0.2763672h8.4863281
		V1.7226563z"/>
	<path class="st0" d="M19.2392578,13.7246094l-1.3828125-3.8369141h-5.8359375l-1.3837891,3.8369141H8.9501953l4.9794922-13.4482422
		h2.1152344l4.9707031,13.4482422H19.2392578z M17.3564453,8.5039063l-2.4179688-6.6298828l-2.4101563,6.6298828H17.3564453z"/>
	<path class="st0" d="M41.4472656,13.7246094h-8.7539063V0.2763672h8.7539063v1.4462891h-7.09375v3.9169922h6.9150391v1.4453125
		h-6.9150391v5.1943359h7.09375V13.7246094z"/>
	<path class="st0" d="M54.1103516,0.2763672l-4.6669922,6.6484375l4.6572266,6.7998047h-1.9355469L48.4345703,8.09375
		l-3.828125,5.6308594h-1.8115234l4.7119141-6.7197266l-4.6044922-6.7285156h1.9267578l3.6855469,5.5595703l3.7744141-5.5595703
		H54.1103516z"/>
	<path class="st0" d="M66.4960938,13.7246094h-1.6601563V7.0761719h-6.9599609v6.6484375h-1.6601563V0.2763672h1.6601563v5.3632813
		h6.9599609V0.2763672h1.6601563V13.7246094z"/>
	<path class="st0" d="M74.4199219,13.7246094h-5.1845703V12.484375h1.7666016V1.5166016h-1.7666016V0.2763672h5.1845703v1.2402344
		h-1.7578125V12.484375h1.7578125V13.7246094z"/>
	<path class="st0" d="M77.1689453,13.7246094V0.2763672h3.9619141c0.6064453,0,1.1230469,0.0117188,1.5478516,0.0361328
		c0.4257813,0.0234375,0.8632813,0.1005859,1.3125,0.2314453c0.4482422,0.1308594,0.8339844,0.3291016,1.1552734,0.59375
		s0.5595703,0.5751953,0.7138672,0.9326172c0.1542969,0.3564453,0.2324219,0.7646484,0.2324219,1.2226563
		c0,1.1894531-0.6015625,2.1054688-1.8027344,2.7480469v0.0712891C85.2001953,6.3027344,85.9111328,6.703125,86.4228516,7.3125
		c0.5117188,0.6103516,0.7666016,1.3671875,0.7666016,2.2714844c0,1.2792969-0.4589844,2.2890625-1.3779297,3.0292969
		c-0.9199219,0.7412109-2.2294922,1.1113281-3.9316406,1.1113281H77.1689453z M78.828125,1.6865234v4.0869141h2.4003906
		c1.1601563,0,1.9726563-0.1875,2.4365234-0.5625c0.4638672-0.3740234,0.6962891-0.9511719,0.6962891-1.7304688
		c0-0.5419922-0.1845703-0.9755859-0.5537109-1.3027344c-0.3681641-0.3271484-1.296875-0.4912109-2.7841797-0.4912109H78.828125z
		 M78.828125,7.1474609v5.1669922h2.4189453c1.7070313,0,2.8359375-0.2363281,3.3857422-0.7089844
		c0.5507813-0.4736328,0.8261719-1.1113281,0.8261719-1.9140625c0-0.5234375-0.1015625-0.9716797-0.3037109-1.34375
		C84.953125,7.9765625,84.6367188,7.6835938,84.2050781,7.46875c-0.4316406-0.2138672-1.2685547-0.3212891-2.5117188-0.3212891
		H78.828125z"/>
	<path class="st0" d="M94.0878906,13.7246094h-5.1845703V12.484375h1.7666016V1.5166016h-1.7666016V0.2763672h5.1845703v1.2402344
		h-1.7578125V12.484375h1.7578125V13.7246094z"/>
	<path class="st0" d="M100.1650391,13.7246094V1.7226563H95.390625V0.2763672h11.2080078v1.4462891h-4.7744141v12.0019531
		H100.1650391z"/>
	<path class="st0" d="M113.0771484,13.7246094h-5.1845703V12.484375h1.7666016V1.5166016h-1.7666016V0.2763672h5.1845703v1.2402344
		h-1.7578125V12.484375h1.7578125V13.7246094z"/>
	<path class="st0" d="M121.1357422,14.0009766c-1.9101563,0-3.4091797-0.6171875-4.4980469-1.8515625
		s-1.6328125-2.9492188-1.6328125-5.1445313c0-2.1894531,0.5458984-3.9042969,1.6376953-5.1445313S119.2314453,0,121.1357422,0
		c1.9091797,0,3.4101563,0.6201172,4.5019531,1.8603516s1.6367188,2.9550781,1.6367188,5.1445313
		c0,2.1835938-0.5449219,3.8955078-1.6367188,5.1357422S123.0449219,14.0009766,121.1357422,14.0009766z M121.1445313,1.4189453
		c-1.3925781,0-2.4746094,0.4873047-3.2480469,1.4638672c-0.7734375,0.9755859-1.1601563,2.3496094-1.1601563,4.1220703
		c0,1.7734375,0.3867188,3.1455078,1.1601563,4.1181641s1.8554688,1.4589844,3.2480469,1.4589844
		c1.3857422,0,2.4658203-0.4863281,3.2392578-1.4589844s1.1601563-2.3447266,1.1601563-4.1181641
		c0-1.7841797-0.3867188-3.1621094-1.1601563-4.1318359S122.5302734,1.4189453,121.1445313,1.4189453z"/>
	<path class="st0" d="M140,13.7246094h-1.9277344l-6.7724609-11.671875v11.671875h-1.5439453V0.2763672h2.3017578
		l6.3984375,11.0302734V0.2763672H140V13.7246094z"/>
</g>
</svg>
